<mxfile host="Electron" agent="Mozilla/5.0 (Macintosh; Intel Mac OS X 10_15_7) AppleWebKit/537.36 (KHTML, like Gecko) draw.io/24.7.17 Chrome/128.0.6613.36 Electron/32.0.1 Safari/537.36" version="24.7.17">
  <diagram id="C5RBs43oDa-KdzZeNtuy" name="Page-1">
    <mxGraphModel dx="719" dy="560" grid="1" gridSize="10" guides="1" tooltips="1" connect="1" arrows="1" fold="1" page="1" pageScale="1" pageWidth="1169" pageHeight="827" math="0" shadow="0">
      <root>
        <mxCell id="WIyWlLk6GJQsqaUBKTNV-0" />
        <mxCell id="WIyWlLk6GJQsqaUBKTNV-1" parent="WIyWlLk6GJQsqaUBKTNV-0" />
        <mxCell id="DBE4CibH7lqnU8XkQw9H-5" style="rounded=0;orthogonalLoop=1;jettySize=auto;html=1;endArrow=block;endFill=1;fillColor=#d5e8d4;strokeColor=#82b366;strokeWidth=6;targetPerimeterSpacing=0;jumpStyle=none;jumpSize=6;endSize=6;sourcePerimeterSpacing=12;" edge="1" parent="WIyWlLk6GJQsqaUBKTNV-1" source="DBE4CibH7lqnU8XkQw9H-1">
          <mxGeometry relative="1" as="geometry">
            <mxPoint x="240" y="200" as="targetPoint" />
          </mxGeometry>
        </mxCell>
        <mxCell id="DBE4CibH7lqnU8XkQw9H-1" value="Training&lt;div&gt;set&lt;/div&gt;" style="rounded=1;whiteSpace=wrap;html=1;flipV=1;flipH=0;direction=south;fillColor=#f5f5f5;strokeColor=#666666;fontColor=#333333;" vertex="1" parent="WIyWlLk6GJQsqaUBKTNV-1">
          <mxGeometry x="90" y="170" width="60" height="140" as="geometry" />
        </mxCell>
        <mxCell id="DBE4CibH7lqnU8XkQw9H-2" value="Random Forest" style="rounded=1;whiteSpace=wrap;html=1;fillColor=#f8cecc;strokeColor=#b85450;" vertex="1" parent="WIyWlLk6GJQsqaUBKTNV-1">
          <mxGeometry x="250" y="170" width="60" height="60" as="geometry" />
        </mxCell>
        <mxCell id="DBE4CibH7lqnU8XkQw9H-3" value="Base Model 2 (to be choosen)" style="rounded=1;whiteSpace=wrap;html=1;fillColor=#f8cecc;strokeColor=#b85450;" vertex="1" parent="WIyWlLk6GJQsqaUBKTNV-1">
          <mxGeometry x="250" y="250" width="60" height="60" as="geometry" />
        </mxCell>
        <mxCell id="DBE4CibH7lqnU8XkQw9H-4" value="Logic Regression" style="rounded=1;whiteSpace=wrap;html=1;fillColor=#fff2cc;strokeColor=#d6b656;" vertex="1" parent="WIyWlLk6GJQsqaUBKTNV-1">
          <mxGeometry x="410" y="210" width="60" height="60" as="geometry" />
        </mxCell>
        <mxCell id="DBE4CibH7lqnU8XkQw9H-7" style="rounded=0;orthogonalLoop=1;jettySize=auto;html=1;endArrow=block;endFill=1;fillColor=#d5e8d4;strokeColor=#82b366;strokeWidth=6;targetPerimeterSpacing=0;jumpStyle=none;jumpSize=6;endSize=6;sourcePerimeterSpacing=12;" edge="1" parent="WIyWlLk6GJQsqaUBKTNV-1">
          <mxGeometry relative="1" as="geometry">
            <mxPoint x="161" y="253.00000000000023" as="sourcePoint" />
            <mxPoint x="239" y="279.0000000000002" as="targetPoint" />
          </mxGeometry>
        </mxCell>
        <mxCell id="DBE4CibH7lqnU8XkQw9H-8" style="rounded=0;orthogonalLoop=1;jettySize=auto;html=1;endArrow=block;endFill=1;fillColor=#d5e8d4;strokeColor=#82b366;strokeWidth=6;targetPerimeterSpacing=0;jumpStyle=none;jumpSize=6;endSize=6;sourcePerimeterSpacing=12;" edge="1" parent="WIyWlLk6GJQsqaUBKTNV-1">
          <mxGeometry relative="1" as="geometry">
            <mxPoint x="320" y="204.00000000000023" as="sourcePoint" />
            <mxPoint x="398" y="230.00000000000023" as="targetPoint" />
          </mxGeometry>
        </mxCell>
        <mxCell id="DBE4CibH7lqnU8XkQw9H-10" value="Prediction 1" style="edgeLabel;html=1;align=center;verticalAlign=middle;resizable=0;points=[];" vertex="1" connectable="0" parent="DBE4CibH7lqnU8XkQw9H-8">
          <mxGeometry x="-0.3929" y="-1" relative="1" as="geometry">
            <mxPoint x="27" y="-13" as="offset" />
          </mxGeometry>
        </mxCell>
        <mxCell id="DBE4CibH7lqnU8XkQw9H-9" style="rounded=0;orthogonalLoop=1;jettySize=auto;html=1;endArrow=block;endFill=1;fillColor=#d5e8d4;strokeColor=#82b366;strokeWidth=6;targetPerimeterSpacing=0;jumpStyle=none;jumpSize=6;endSize=6;sourcePerimeterSpacing=12;" edge="1" parent="WIyWlLk6GJQsqaUBKTNV-1">
          <mxGeometry relative="1" as="geometry">
            <mxPoint x="320" y="276" as="sourcePoint" />
            <mxPoint x="398" y="250" as="targetPoint" />
          </mxGeometry>
        </mxCell>
        <mxCell id="DBE4CibH7lqnU8XkQw9H-11" value="Prediction 2" style="edgeLabel;html=1;align=center;verticalAlign=middle;resizable=0;points=[];" vertex="1" connectable="0" parent="DBE4CibH7lqnU8XkQw9H-9">
          <mxGeometry x="-0.0882" y="1" relative="1" as="geometry">
            <mxPoint x="15" y="17" as="offset" />
          </mxGeometry>
        </mxCell>
        <mxCell id="DBE4CibH7lqnU8XkQw9H-12" style="rounded=0;orthogonalLoop=1;jettySize=auto;html=1;endArrow=block;endFill=1;fillColor=#d5e8d4;strokeColor=#82b366;strokeWidth=6;targetPerimeterSpacing=0;jumpStyle=none;jumpSize=6;endSize=6;sourcePerimeterSpacing=12;" edge="1" parent="WIyWlLk6GJQsqaUBKTNV-1">
          <mxGeometry relative="1" as="geometry">
            <mxPoint x="490" y="239.80000000000024" as="sourcePoint" />
            <mxPoint x="570" y="239.8" as="targetPoint" />
            <Array as="points">
              <mxPoint x="530" y="239.8" />
            </Array>
          </mxGeometry>
        </mxCell>
        <mxCell id="DBE4CibH7lqnU8XkQw9H-13" value="Final Prediction" style="edgeLabel;html=1;align=center;verticalAlign=middle;resizable=0;points=[];" vertex="1" connectable="0" parent="DBE4CibH7lqnU8XkQw9H-12">
          <mxGeometry x="-0.3929" y="-1" relative="1" as="geometry">
            <mxPoint x="13" y="-21" as="offset" />
          </mxGeometry>
        </mxCell>
        <mxCell id="DBE4CibH7lqnU8XkQw9H-14" value="Output" style="rounded=1;whiteSpace=wrap;html=1;fillColor=#e1d5e7;strokeColor=#9673a6;" vertex="1" parent="WIyWlLk6GJQsqaUBKTNV-1">
          <mxGeometry x="590" y="210" width="60" height="60" as="geometry" />
        </mxCell>
        <mxCell id="DBE4CibH7lqnU8XkQw9H-15" value="Ensemble Classification using Stacking" style="text;html=1;align=center;verticalAlign=middle;whiteSpace=wrap;rounded=0;fontSize=20;" vertex="1" parent="WIyWlLk6GJQsqaUBKTNV-1">
          <mxGeometry x="150" y="100" width="390" height="30" as="geometry" />
        </mxCell>
      </root>
    </mxGraphModel>
  </diagram>
</mxfile>
